<svg width="15" height="16" viewBox="0 0 15 16" fill="none" xmlns="http://www.w3.org/2000/svg">
    <path d="M4.37536 7.99916C4.37539 7.83341 4.44126 7.67446 4.55848 7.55728L9.55848 2.55728C9.67636 2.44343 9.83423 2.38044 9.99811 2.38186C10.162 2.38328 10.3187 2.44901 10.4346 2.56489C10.5505 2.68077 10.6162 2.83753 10.6177 3.00141C10.6191 3.16528 10.5561 3.32315 10.4422 3.44103L5.88411 7.99916L10.4422 12.5573C10.5561 12.6752 10.6191 12.833 10.6177 12.9969C10.6162 13.1608 10.5505 13.3175 10.4346 13.4334C10.3187 13.5493 10.162 13.615 9.99811 13.6165C9.83423 13.6179 9.67636 13.5549 9.55848 13.441L4.55848 8.44103C4.44126 8.32385 4.37539 8.1649 4.37536 7.99916Z"
          fill="#56596a"/>
</svg>
